<svg width="33" height="32" viewBox="0 0 33 32" fill="none" xmlns="http://www.w3.org/2000/svg">
<path d="M13.9463 4.25385C13.9463 3.68898 14.4042 3.23107 14.969 3.23107H19.0538V8.33864H13.9463V4.25385Z" fill="#00FF00"/>
<rect x="19.0538" y="3.23107" width="2.55379" height="2.55379" fill="#00FF00"/>
<rect x="19.0539" y="5.78485" width="2.55379" height="2.55379" fill="#00FF00"/>
<rect x="21.6076" y="3.23107" width="2.55379" height="2.55379" fill="#00FF00"/>
<path d="M21.6076 5.78485H24.1614V7.31585C24.1614 7.88072 23.7035 8.33864 23.1386 8.33864H21.6076V5.78485Z" fill="#00FF00"/>
<path d="M8.83868 9.36143C8.83868 8.79656 9.2966 8.33864 9.86147 8.33864H13.9463V13.4462H8.83868V9.36143Z" fill="#00FF00"/>
<rect x="8.83868" y="13.4462" width="5.10757" height="5.10757" fill="#00FF00"/>
<rect x="13.9463" y="13.4462" width="5.10757" height="5.10757" fill="#00FF00"/>
<path d="M19.0538 13.4462H23.1386C23.7035 13.4462 24.1614 13.9041 24.1614 14.469V18.5538H19.0538V13.4462Z" fill="#00FF00"/>
<rect x="8.83868" y="18.5538" width="5.10757" height="5.10757" fill="#00FF00"/>
<path d="M8.83868 23.6614H13.9463V28.7689H9.86147C9.2966 28.7689 8.83868 28.311 8.83868 27.7461V23.6614Z" fill="#00FF00"/>
</svg>
